<svg xmlns="http://www.w3.org/2000/svg" width="72" height="72" fill="none" viewBox="0 0 72 72"><path fill="#2C97DF" d="M71.8 0H0V72H71.8V0Z"/><path fill="#fff" d="M32.2 17.4V34.6C30 32.5 27 31.3 23.9 31.3C20.8 31.3 17.9 32.6 15.7 34.7C11.2 39.2 11.4 46.7 15.9 51.2C18.1 53.3 20.9 54.4 23.9 54.4C26.9 54.4 29.8 53.2 31.9 51.2V54.4H35.5V17.4H32.2ZM24.1 50.8C22 50.8 19.9 49.9 18.4 48.4C16.9 46.9 16 44.9 16 42.7C16.1 40.6 16.9 38.6 18.4 37.1C19.9 35.6 21.9 34.7 24 34.7C25.1 34.7 26.1 34.9 27.1 35.3C28.1 35.7 29 36.3 29.7 37C30.4 37.7 31 38.6 31.4 39.6C31.8 40.6 32 41.6 32 42.7C32.2 47.3 28.6 51 24.1 50.8Z"/><path fill="#fff" d="M51.1 30.9V34.5C50 34.5 49 34.7 48 35.1C47 35.5 46.1 36.1 45.3 36.9C44.5 37.7 43.9 38.6 43.5 39.6C43.1 40.6 42.9 41.7 42.9 42.8V54.6H39.3V30.9H42.9V34.3C45.1 32.2 48 31 51.1 30.9Z"/><path fill="#fff" d="M59.3 46.9V50.3H55.2V54.4H51.8V50.3H47.7V46.9H51.8V42.8H55.2V46.9H59.3Z"/></svg>