<svg xmlns="http://www.w3.org/2000/svg" width="300" height="72" fill="none" viewBox="0 0 300 72"><path fill="#2C97DF" d="M71.8 0H0V72H71.8V0Z"/><path fill="#fff" d="M32.2 17.4V34.6C30 32.5 27 31.3 23.9 31.3C20.8 31.3 17.9 32.6 15.7 34.7C11.2 39.2 11.4 46.7 15.9 51.2C18.1 53.3 20.9 54.4 23.9 54.4C26.9 54.4 29.8 53.2 31.9 51.2V54.4H35.5V17.4H32.2ZM24.1 50.8C22 50.8 19.9 49.9 18.4 48.4C16.9 46.9 16 44.9 16 42.7C16.1 40.6 16.9 38.6 18.4 37.1C19.9 35.6 21.9 34.7 24 34.7C25.1 34.7 26.1 34.9 27.1 35.3C28.1 35.7 29 36.3 29.7 37C30.4 37.7 31 38.6 31.4 39.6C31.8 40.6 32 41.6 32 42.7C32.2 47.3 28.6 51 24.1 50.8Z"/><path fill="#fff" d="M51.1 30.9V34.5C50 34.5 49 34.7 48 35.1C47 35.5 46.1 36.1 45.3 36.9C44.5 37.7 43.9 38.6 43.5 39.6C43.1 40.6 42.9 41.7 42.9 42.8V54.6H39.3V30.9H42.9V34.3C45.1 32.2 48 31 51.1 30.9Z"/><path fill="#fff" d="M59.3 46.9V50.3H55.2V54.4H51.8V50.3H47.7V46.9H51.8V42.8H55.2V46.9H59.3Z"/><path fill="#E9EAEC" d="M83.8 43V42.6C83.7 41.1 83.9 39.6 84.5 38.2C85 36.8 85.8 35.5 86.8 34.4C87.8 33.3 89 32.4 90.4 31.7C91.8 31.1 93.2 30.7 94.7 30.6H95.2C98.2 30.6 101.1 31.7 103.2 33.8C105.3 35.9 106.6 38.7 106.6 41.7V43C106.7 46 105.6 48.9 103.6 51.1C101.6 53.3 98.8 54.6 95.8 54.8C92.8 55 89.9 54 87.7 52C85.5 50 84.1 47.3 83.9 44.3C83.8 43.8 83.8 43.4 83.8 43ZM104 43V42.6C104 36.3 100 32.6 95.1 32.6C90.1 32.6 86.2 36.4 86.2 42.4V42.8C86.2 48.9 90 52.6 95.1 52.6C100.2 52.6 104 49.1 104 43Z"/><path fill="#E9EAEC" d="M110.4 30.9H112.7V35.6C113.5 34.1 114.7 32.8 116.1 32C117.5 31.1 119.2 30.6 120.9 30.6C125.9 30.6 129.3 33.3 129.3 39.9V54.4H127V39.7C127 34.7 124.7 32.5 120.4 32.5C118.5 32.4 116.6 33.1 115.1 34.4C113.7 35.7 112.8 37.5 112.7 39.5V54.4H110.4V30.9Z"/><path fill="#E9EAEC" d="M142.8 43.1V42.7C142.8 35.5 147.4 30.5 153.7 30.5C155.5 30.4 157.3 30.9 158.9 31.9C160.4 32.9 161.6 34.3 162.3 36V17.5H164.6V54.6H162.3V49.2C161.5 50.9 160.3 52.4 158.7 53.4C157.1 54.4 155.3 54.9 153.4 54.9C147.4 54.8 142.8 50.5 142.8 43.1ZM162.4 43V42.6C162.4 36.2 158.8 32.8 154 32.8C149.2 32.8 145.4 36.4 145.4 42.8V43.2C145.4 49.6 149 53 153.8 53C158.7 53 162.4 49.4 162.4 43Z"/><path fill="#E9EAEC" d="M168.8 43V42.6C168.8 35.4 173.3 30.6 179.5 30.6C185.2 30.6 189.9 34.4 189.9 42.1V43H171.3C171.3 49.3 174.3 52.8 179.9 52.8C183.9 52.8 186.5 51.2 187.2 48H189.5C188.4 52.5 184.9 55 179.7 55C173.1 54.8 168.8 49.9 168.8 43ZM187.4 41C187.2 35.3 184.2 32.6 179.5 32.6C174.9 32.6 171.8 35.8 171.3 41H187.4Z"/><path fill="#E9EAEC" d="M193.9 30.9H196.2V35.4C196.9 33.9 198 32.7 199.3 31.9C200.7 31 202.2 30.6 203.8 30.6C205.4 30.4 207 30.9 208.4 31.8C209.7 32.8 210.6 34.2 211 35.8C211.7 34.2 212.9 32.8 214.4 31.9C215.9 31 217.6 30.5 219.4 30.6C223.9 30.6 227.3 33.1 227.3 39.7V54.4H225V39.6C225 34.6 222.9 32.6 219.1 32.6C215.1 32.4 212 35.6 211.8 39.6V54.5H209.5V39.6C209.5 34.6 207.4 32.6 203.6 32.6C201.7 32.6 199.9 33.3 198.5 34.6C197.1 35.9 196.3 37.7 196.2 39.6V54.5H193.9V30.9Z"/><path fill="#E9EAEC" d="M231.2 48.1C231.2 42.7 236.4 40.9 242.3 40.9H247.1V38.8C247.1 34.3 245.3 32.5 241.2 32.5C237.6 32.5 235.1 34.1 234.6 37.5H232.3C232.8 32.5 236.9 30.5 241.4 30.5C246.2 30.5 249.6 32.8 249.6 38.7V54.3H247.3V50.7C246.4 52 245.3 53 243.9 53.7C242.5 54.4 241 54.7 239.4 54.6C234.4 54.8 231.2 52.6 231.2 48.1ZM247.1 46.9V42.9H242.3C237.5 42.9 233.5 44 233.5 48.1C233.5 51.1 235.3 52.9 239.2 52.9C243.5 53 247.1 50.3 247.1 46.9Z"/><path fill="#E9EAEC" d="M254.9 30.9H257.2V35.6C258 34.1 259.2 32.8 260.6 32C262 31.1 263.7 30.6 265.4 30.6C270.4 30.6 273.8 33.3 273.8 39.9V54.4H271.5V39.7C271.5 34.7 269.2 32.5 265.1 32.5C263.2 32.4 261.3 33.1 259.8 34.4C258.4 35.7 257.5 37.5 257.4 39.5V54.4H255.1L254.9 30.9Z"/><path fill="#E9EAEC" d="M277.8 43.1V42.7C277.8 35.5 282.4 30.5 288.7 30.5C290.6 30.4 292.4 30.9 294 31.9C295.6 32.9 296.8 34.4 297.5 36.1V17.4H299.8V54.5H297.5V49.1C296.7 50.8 295.5 52.3 293.9 53.3C292.3 54.3 290.5 54.8 288.6 54.8C282.5 54.8 277.8 50.5 277.8 43.1ZM297.3 43V42.6C297.3 36.2 293.7 32.8 288.9 32.8C284.1 32.8 280.1 36.4 280.1 42.8V43.2C280.1 49.6 283.7 53 288.5 53C293.3 53 297.5 49.4 297.3 43Z"/></svg>